<?xml version="1.0" encoding="UTF-8" standalone="no"?>
<svg
   width="471"
   height="312"
   viewBox="0 0 471 312"
   fill="none"
   version="1.1"
   id="svg5"
   sodipodi:docname="kompismoln-logo.svg"
   inkscape:version="1.4.2 (ebf0e940d0, 2025-05-08)"
   xmlns:inkscape="http://www.inkscape.org/namespaces/inkscape"
   xmlns:sodipodi="http://sodipodi.sourceforge.net/DTD/sodipodi-0.dtd"
   xmlns="http://www.w3.org/2000/svg"
   xmlns:svg="http://www.w3.org/2000/svg">
  <sodipodi:namedview
     id="namedview5"
     pagecolor="#ffffff"
     bordercolor="#000000"
     borderopacity="0.25"
     inkscape:showpageshadow="2"
     inkscape:pageopacity="0.0"
     inkscape:pagecheckerboard="0"
     inkscape:deskcolor="#d1d1d1"
     inkscape:zoom="1.2648117"
     inkscape:cx="548.30298"
     inkscape:cy="296.09151"
     inkscape:window-width="1898"
     inkscape:window-height="1024"
     inkscape:window-x="0"
     inkscape:window-y="0"
     inkscape:window-maximized="1"
     inkscape:current-layer="svg5" />
  <g
     inkscape:groupmode="layer"
     id="layer1"
     inkscape:label="bg">
    <rect
       style="fill:#30667c;fill-opacity:1;stroke-width:1.07844"
       id="rect5"
       width="470.99997"
       height="312"
       x="7.6293945e-06"
       y="3.5527137e-15"
       ry="0" />
  </g>
  <path
     fill-rule="evenodd"
     clip-rule="evenodd"
     d="m 255.622,28.9386 c 1.711,0.7241 3.393,1.5698 5.042,2.5314 3.391,-3.6199 7.112,-5.6186 11.015,-5.6186 4.723,0 9.179,2.9267 13.108,8.1112 2.871,-1.2177 5.91,-1.8712 9.055,-1.8712 11.45,0 21.493,8.6583 27.132,21.6678 5.454,-0.7641 11.095,-1.1649 16.87,-1.1649 28.555,0 53.849,9.8006 69.427,24.8711 -0.002,-0.1186 -0.003,-0.2375 -0.003,-0.3568 0,-8.1233 4.524,-14.7086 10.104,-14.7086 5.581,0 10.104,6.5853 10.104,14.7086 0,7.717 -4.082,14.0459 -9.275,14.6598 3.469,6.5372 5.364,13.6116 5.364,20.9976 0,7.007 -1.706,13.734 -4.843,19.988 30.108,6.619 51.778,25.102 51.778,46.869 0,25.641 -30.07,46.726 -68.583,49.226 3.392,7.445 5.351,16.236 5.351,25.654 0,26.831 -15.906,48.583 -35.527,48.583 -5.673,0 -11.035,-1.819 -15.793,-5.052 -8.897,8.864 -19.332,13.966 -30.49,13.966 -18.985,0 -35.877,-14.772 -46.668,-37.718 -2.755,0.184 -5.564,0.278 -8.415,0.278 -15.258,0 -29.303,-2.705 -40.468,-7.246 -11.112,4.68 -23.183,7.246 -35.801,7.246 -7.769,0 -15.331,-0.973 -22.59,-2.813 -12.21,10.772 -26.994,17.076 -42.923,17.076 -36.7089,0 -67.3345,-33.477 -74.4057,-77.973 C 22.4674,204.093 0.5,189.458 0.5,172.491 c 0,-19.394 28.7065,-35.743 67.8724,-40.759 7.5725,-12.647 17.5027,-22.841 28.9452,-29.497 -5.0559,-6.4059 -8.1629,-15.1022 -8.1629,-24.6807 0,-19.6929 13.1333,-35.6571 29.3343,-35.6571 3.04,0 5.972,0.5621 8.73,1.6055 2.125,-15.4665 17.252,-27.457 35.597,-27.457 10.565,0 20.062,3.9762 26.623,10.3026 C 194.627,10.9078 207.312,0 222.137,0 c 15.641,0 28.899,12.1419 33.485,28.9386 z"
     fill="white"
     id="path1"
     style="display:inline;fill:#ffffff;fill-opacity:1"
     inkscape:label="path1" />
  <g
     filter="url(#filter0_f_235_103)"
     id="g1"
     style="display:inline;filter:url(#filter0_f_235_103)">
    <ellipse
       cx="243.48199"
       cy="96.940697"
       rx="13.7296"
       ry="13.4226"
       fill="#30667c"
       id="ellipse1" />
  </g>
  <g
     filter="url(#filter1_f_235_103)"
     id="g2"
     style="display:inline;filter:url(#filter1_f_235_103)">
    <ellipse
       cx="161.743"
       cy="96.940697"
       rx="13.7296"
       ry="13.4226"
       fill="#30667c"
       id="ellipse2" />
  </g>
  <g
     filter="url(#filter2_f_235_103)"
     id="g3"
     style="display:inline;filter:url(#filter2_f_235_103)">
    <path
       d="m 138.115,161.369 c 49.555,35.794 101.11,14.914 120.693,0"
       stroke="#30667c"
       stroke-width="5"
       stroke-linecap="round"
       id="path2" />
  </g>
  <defs
     id="defs5">
    <filter
       id="filter0_f_235_103"
       x="227.753"
       y="81.5182"
       width="31.4592"
       height="30.8451"
       filterUnits="userSpaceOnUse"
       color-interpolation-filters="sRGB">
      <feFlood
         flood-opacity="0"
         result="BackgroundImageFix"
         id="feFlood3" />
      <feBlend
         mode="normal"
         in="SourceGraphic"
         in2="BackgroundImageFix"
         result="shape"
         id="feBlend3" />
      <feGaussianBlur
         stdDeviation="0.097168964"
         result="effect1_foregroundBlur_235_103"
         id="feGaussianBlur3" />
    </filter>
    <filter
       id="filter1_f_235_103"
       x="146.014"
       y="81.5182"
       width="31.4592"
       height="30.8451"
       filterUnits="userSpaceOnUse"
       color-interpolation-filters="sRGB">
      <feFlood
         flood-opacity="0"
         result="BackgroundImageFix"
         id="feFlood4" />
      <feBlend
         mode="normal"
         in="SourceGraphic"
         in2="BackgroundImageFix"
         result="shape"
         id="feBlend4" />
      <feGaussianBlur
         stdDeviation="0.075428769"
         result="effect1_foregroundBlur_235_103"
         id="feGaussianBlur4" />
    </filter>
    <filter
       id="filter2_f_235_103"
       x="133.615"
       y="156.869"
       width="129.693"
       height="28.7686"
       filterUnits="userSpaceOnUse"
       color-interpolation-filters="sRGB">
      <feFlood
         flood-opacity="0"
         result="BackgroundImageFix"
         id="feFlood5" />
      <feBlend
         mode="normal"
         in="SourceGraphic"
         in2="BackgroundImageFix"
         result="shape"
         id="feBlend5" />
      <feGaussianBlur
         stdDeviation="0.16883819"
         result="effect1_foregroundBlur_235_103"
         id="feGaussianBlur5" />
    </filter>
  </defs>
</svg>
